<?xml version="1.0"?>
<svg width="512" height="512" xmlns="http://www.w3.org/2000/svg" xmlns:svg="http://www.w3.org/2000/svg" preserveAspectRatio="xMidYMid meet" version="1.0">
 <g class="layer">
  <title>Layer 1</title>
  <g fill="#000000" id="svg_1" transform="translate(0 512) matrix(0.1 0 0 -0.1 0 0)">
   <path d="m2330,5110c-501,-49 -980,-243 -1370,-556c-105,-84 -295,-273 -380,-378c-243,-301 -429,-684 -509,-1051c-45,-205 -56,-312 -56,-555c0,-254 9,-337 55,-546c178,-801 722,-1463 1475,-1794c297,-130 737,-230 1015,-230c278,0 718,100 1015,230c753,331 1297,993 1475,1794c46,209 55,292 55,546c0,243 -11,350 -56,555c-80,367 -266,750 -509,1051c-82,101 -273,292 -374,374c-197,159 -493,328 -727,414c-134,49 -341,102 -494,126c-147,23 -475,34 -615,20zm420,-401c408,-37 787,-186 1125,-442c172,-131 391,-374 512,-568c338,-540 414,-1221 205,-1829c-33,-95 -122,-303 -128,-297c-2,2 3,51 11,108c8,57 15,172 15,254c0,519 -199,996 -569,1365c-370,368 -842,564 -1361,564c-665,0 -1266,-331 -1633,-899c-97,-152 -192,-369 -238,-550c-57,-218 -75,-519 -44,-730c18,-127 18,-128 -7,-80c-57,109 -139,337 -173,480c-63,272 -70,605 -19,874c112,587 453,1091 966,1425c378,246 876,368 1338,325zm25,-1260c314,-42 613,-190 853,-423c309,-300 474,-707 459,-1136c-6,-178 -25,-289 -78,-445c-49,-143 -91,-228 -174,-355c-58,-88 -185,-242 -194,-234c-2,1 4,37 13,78c18,79 23,262 11,351c-63,452 -384,811 -833,933c-87,23 -115,26 -272,26c-157,0 -185,-3 -272,-26c-449,-122 -770,-481 -833,-933c-12,-89 -7,-272 11,-351c9,-41 15,-77 13,-78c-9,-8 -136,146 -194,234c-83,127 -125,212 -174,355c-53,156 -72,267 -78,445c-15,429 150,836 459,1136c348,338 797,486 1283,423zm0,-1633c114,-36 198,-89 290,-181c293,-292 272,-773 -47,-1042c-219,-186 -535,-220 -788,-87c-477,250 -512,924 -65,1223c133,89 254,123 420,117c83,-3 130,-10 190,-30z" fill="#ffffff" id="svg_2" stroke="black" stroke-width="5"/>
  </g>
 </g>
</svg>